<svg width="80" height="80" viewBox="0 0 80 80" fill="none" xmlns="http://www.w3.org/2000/svg">
<rect x="1" y="1" width="78" height="78" rx="3" fill="#333333" stroke="#CCCCCC" stroke-width="2"/>
<rect x="37" y="14" width="4" height="52" fill="#FFEA79"/>
<rect x="41" y="18" width="4" height="44" fill="#FFEA79"/>
<rect x="45" y="22" width="4" height="36" fill="#FFEA79"/>
<rect x="49" y="26" width="4" height="28" fill="#FFEA79"/>
<rect x="53" y="30" width="4" height="20" fill="#FFEA79"/>
<rect x="61" y="38" width="4" height="4" fill="#FFEA79"/>
<rect x="57" y="34" width="4" height="12" fill="#FFEA79"/>
<rect x="37" y="12" width="1" height="1" fill="#FFEA79"/>
<rect x="38" y="12" width="1" height="1" fill="#FFEA79"/>
<rect x="37" y="13" width="1" height="1" fill="#FFEA79"/>
<rect x="38" y="13" width="1" height="1" fill="#FFEA79"/>
<rect x="33" y="12" width="2" height="28" fill="#FFEA79"/>
<rect x="35" y="12" width="2" height="28" fill="#FFEA79"/>
<rect x="33" y="40" width="2" height="28" fill="#FFEA79"/>
<rect x="35" y="40" width="2" height="28" fill="#FFEA79"/>
<rect x="27" y="12" width="2" height="28" fill="#FFEA79"/>
<rect x="29" y="12" width="2" height="28" fill="#FFEA79"/>
<rect x="27" y="40" width="2" height="28" fill="#FFEA79"/>
<rect x="29" y="40" width="2" height="28" fill="#FFEA79"/>
<rect x="21" y="12" width="2" height="28" fill="#FFEA79"/>
<rect x="23" y="12" width="2" height="28" fill="#FFEA79"/>
<rect x="21" y="40" width="2" height="28" fill="#FFEA79"/>
<rect x="23" y="40" width="2" height="28" fill="#FFEA79"/>
<rect x="15" y="12" width="2" height="28" fill="#FFEA79"/>
<rect x="17" y="12" width="2" height="28" fill="#FFEA79"/>
<rect x="15" y="40" width="2" height="28" fill="#FFEA79"/>
<rect x="17" y="40" width="2" height="28" fill="#FFEA79"/>
<rect x="41" y="16" width="1" height="1" fill="#FFEA79"/>
<rect x="42" y="16" width="1" height="1" fill="#FFEA79"/>
<rect x="41" y="17" width="1" height="1" fill="#FFEA79"/>
<rect x="42" y="17" width="1" height="1" fill="#FFEA79"/>
<rect x="45" y="20" width="1" height="1" fill="#FFEA79"/>
<rect x="46" y="20" width="1" height="1" fill="#FFEA79"/>
<rect x="45" y="21" width="1" height="1" fill="#FFEA79"/>
<rect x="46" y="21" width="1" height="1" fill="#FFEA79"/>
<rect x="49" y="24" width="1" height="1" fill="#FFEA79"/>
<rect x="50" y="24" width="1" height="1" fill="#FFEA79"/>
<rect x="49" y="25" width="1" height="1" fill="#FFEA79"/>
<rect x="50" y="25" width="1" height="1" fill="#FFEA79"/>
<rect x="53" y="28" width="1" height="1" fill="#FFEA79"/>
<rect x="54" y="28" width="1" height="1" fill="#FFEA79"/>
<rect x="53" y="29" width="1" height="1" fill="#FFEA79"/>
<rect x="54" y="29" width="1" height="1" fill="#FFEA79"/>
<rect x="57" y="32" width="1" height="1" fill="#FFEA79"/>
<rect x="58" y="32" width="1" height="1" fill="#FFEA79"/>
<rect x="57" y="33" width="1" height="1" fill="#FFEA79"/>
<rect x="58" y="33" width="1" height="1" fill="#FFEA79"/>
<rect x="61" y="36" width="1" height="1" fill="#FFEA79"/>
<rect x="62" y="36" width="1" height="1" fill="#FFEA79"/>
<rect x="61" y="37" width="1" height="1" fill="#FFEA79"/>
<rect x="62" y="37" width="1" height="1" fill="#FFEA79"/>
<rect x="61" y="42" width="1" height="1" fill="#FFEA79"/>
<rect x="62" y="42" width="1" height="1" fill="#FFEA79"/>
<rect x="61" y="43" width="1" height="1" fill="#FFEA79"/>
<rect x="62" y="43" width="1" height="1" fill="#FFEA79"/>
<rect x="57" y="46" width="1" height="1" fill="#FFEA79"/>
<rect x="58" y="46" width="1" height="1" fill="#FFEA79"/>
<rect x="57" y="47" width="1" height="1" fill="#FFEA79"/>
<rect x="58" y="47" width="1" height="1" fill="#FFEA79"/>
<rect x="53" y="50" width="1" height="1" fill="#FFEA79"/>
<rect x="54" y="50" width="1" height="1" fill="#FFEA79"/>
<rect x="53" y="51" width="1" height="1" fill="#FFEA79"/>
<rect x="54" y="51" width="1" height="1" fill="#FFEA79"/>
<rect x="49" y="54" width="1" height="1" fill="#FFEA79"/>
<rect x="50" y="54" width="1" height="1" fill="#FFEA79"/>
<rect x="49" y="55" width="1" height="1" fill="#FFEA79"/>
<rect x="50" y="55" width="1" height="1" fill="#FFEA79"/>
<rect x="45" y="58" width="1" height="1" fill="#FFEA79"/>
<rect x="46" y="58" width="1" height="1" fill="#FFEA79"/>
<rect x="45" y="59" width="1" height="1" fill="#FFEA79"/>
<rect x="46" y="59" width="1" height="1" fill="#FFEA79"/>
<rect x="41" y="62" width="1" height="1" fill="#FFEA79"/>
<rect x="42" y="62" width="1" height="1" fill="#FFEA79"/>
<rect x="41" y="63" width="1" height="1" fill="#FFEA79"/>
<rect x="42" y="63" width="1" height="1" fill="#FFEA79"/>
<rect x="37" y="66" width="1" height="1" fill="#FFEA79"/>
<rect x="38" y="66" width="1" height="1" fill="#FFEA79"/>
<rect x="37" y="67" width="1" height="1" fill="#FFEA79"/>
<rect x="38" y="67" width="1" height="1" fill="#FFEA79"/>
</svg>
