<svg width="80" height="80" viewBox="0 0 80 80" fill="none" xmlns="http://www.w3.org/2000/svg">
<rect x="79" y="1" width="78" height="78" rx="3" transform="rotate(90 79 1)" fill="#333333" stroke="#CCCCCC" stroke-width="2"/>
<rect x="66" y="37" width="4" height="52" transform="rotate(90 66 37)" fill="#FFEA79"/>
<rect x="62" y="41" width="4" height="44" transform="rotate(90 62 41)" fill="#FFEA79"/>
<rect x="58" y="45" width="4" height="36" transform="rotate(90 58 45)" fill="#FFEA79"/>
<rect x="54" y="49" width="4" height="28" transform="rotate(90 54 49)" fill="#FFEA79"/>
<rect x="50" y="53" width="4" height="20" transform="rotate(90 50 53)" fill="#FFEA79"/>
<rect x="42" y="61" width="4" height="4" transform="rotate(90 42 61)" fill="#FFEA79"/>
<rect x="46" y="57" width="4" height="12" transform="rotate(90 46 57)" fill="#FFEA79"/>
<rect x="68" y="37" width="1" height="1" transform="rotate(90 68 37)" fill="#FFEA79"/>
<rect x="68" y="38" width="1" height="1" transform="rotate(90 68 38)" fill="#FFEA79"/>
<rect x="67" y="37" width="1" height="1" transform="rotate(90 67 37)" fill="#FFEA79"/>
<rect x="67" y="38" width="1" height="1" transform="rotate(90 67 38)" fill="#FFEA79"/>
<rect x="68" y="33" width="2" height="28" transform="rotate(90 68 33)" fill="#FFEA79"/>
<rect x="68" y="35" width="2" height="28" transform="rotate(90 68 35)" fill="#FFEA79"/>
<rect x="40" y="33" width="2" height="28" transform="rotate(90 40 33)" fill="#FFEA79"/>
<rect x="40" y="35" width="2" height="28" transform="rotate(90 40 35)" fill="#FFEA79"/>
<rect x="68" y="27" width="2" height="28" transform="rotate(90 68 27)" fill="#FFEA79"/>
<rect x="68" y="29" width="2" height="28" transform="rotate(90 68 29)" fill="#FFEA79"/>
<rect x="40" y="27" width="2" height="28" transform="rotate(90 40 27)" fill="#FFEA79"/>
<rect x="40" y="29" width="2" height="28" transform="rotate(90 40 29)" fill="#FFEA79"/>
<rect x="68" y="21" width="2" height="28" transform="rotate(90 68 21)" fill="#FFEA79"/>
<rect x="68" y="23" width="2" height="28" transform="rotate(90 68 23)" fill="#FFEA79"/>
<rect x="40" y="21" width="2" height="28" transform="rotate(90 40 21)" fill="#FFEA79"/>
<rect x="40" y="23" width="2" height="28" transform="rotate(90 40 23)" fill="#FFEA79"/>
<rect x="68" y="15" width="2" height="28" transform="rotate(90 68 15)" fill="#FFEA79"/>
<rect x="68" y="17" width="2" height="28" transform="rotate(90 68 17)" fill="#FFEA79"/>
<rect x="40" y="15" width="2" height="28" transform="rotate(90 40 15)" fill="#FFEA79"/>
<rect x="40" y="17" width="2" height="28" transform="rotate(90 40 17)" fill="#FFEA79"/>
<rect x="64" y="41" width="1" height="1" transform="rotate(90 64 41)" fill="#FFEA79"/>
<rect x="64" y="42" width="1" height="1" transform="rotate(90 64 42)" fill="#FFEA79"/>
<rect x="63" y="41" width="1" height="1" transform="rotate(90 63 41)" fill="#FFEA79"/>
<rect x="63" y="42" width="1" height="1" transform="rotate(90 63 42)" fill="#FFEA79"/>
<rect x="60" y="45" width="1" height="1" transform="rotate(90 60 45)" fill="#FFEA79"/>
<rect x="60" y="46" width="1" height="1" transform="rotate(90 60 46)" fill="#FFEA79"/>
<rect x="59" y="45" width="1" height="1" transform="rotate(90 59 45)" fill="#FFEA79"/>
<rect x="59" y="46" width="1" height="1" transform="rotate(90 59 46)" fill="#FFEA79"/>
<rect x="56" y="49" width="1" height="1" transform="rotate(90 56 49)" fill="#FFEA79"/>
<rect x="56" y="50" width="1" height="1" transform="rotate(90 56 50)" fill="#FFEA79"/>
<rect x="55" y="49" width="1" height="1" transform="rotate(90 55 49)" fill="#FFEA79"/>
<rect x="55" y="50" width="1" height="1" transform="rotate(90 55 50)" fill="#FFEA79"/>
<rect x="52" y="53" width="1" height="1" transform="rotate(90 52 53)" fill="#FFEA79"/>
<rect x="52" y="54" width="1" height="1" transform="rotate(90 52 54)" fill="#FFEA79"/>
<rect x="51" y="53" width="1" height="1" transform="rotate(90 51 53)" fill="#FFEA79"/>
<rect x="51" y="54" width="1" height="1" transform="rotate(90 51 54)" fill="#FFEA79"/>
<rect x="48" y="57" width="1" height="1" transform="rotate(90 48 57)" fill="#FFEA79"/>
<rect x="48" y="58" width="1" height="1" transform="rotate(90 48 58)" fill="#FFEA79"/>
<rect x="47" y="57" width="1" height="1" transform="rotate(90 47 57)" fill="#FFEA79"/>
<rect x="47" y="58" width="1" height="1" transform="rotate(90 47 58)" fill="#FFEA79"/>
<rect x="44" y="61" width="1" height="1" transform="rotate(90 44 61)" fill="#FFEA79"/>
<rect x="44" y="62" width="1" height="1" transform="rotate(90 44 62)" fill="#FFEA79"/>
<rect x="43" y="61" width="1" height="1" transform="rotate(90 43 61)" fill="#FFEA79"/>
<rect x="43" y="62" width="1" height="1" transform="rotate(90 43 62)" fill="#FFEA79"/>
<rect x="38" y="61" width="1" height="1" transform="rotate(90 38 61)" fill="#FFEA79"/>
<rect x="38" y="62" width="1" height="1" transform="rotate(90 38 62)" fill="#FFEA79"/>
<rect x="37" y="61" width="1" height="1" transform="rotate(90 37 61)" fill="#FFEA79"/>
<rect x="37" y="62" width="1" height="1" transform="rotate(90 37 62)" fill="#FFEA79"/>
<rect x="34" y="57" width="1" height="1" transform="rotate(90 34 57)" fill="#FFEA79"/>
<rect x="34" y="58" width="1" height="1" transform="rotate(90 34 58)" fill="#FFEA79"/>
<rect x="33" y="57" width="1" height="1" transform="rotate(90 33 57)" fill="#FFEA79"/>
<rect x="33" y="58" width="1" height="1" transform="rotate(90 33 58)" fill="#FFEA79"/>
<rect x="30" y="53" width="1" height="1" transform="rotate(90 30 53)" fill="#FFEA79"/>
<rect x="30" y="54" width="1" height="1" transform="rotate(90 30 54)" fill="#FFEA79"/>
<rect x="29" y="53" width="1" height="1" transform="rotate(90 29 53)" fill="#FFEA79"/>
<rect x="29" y="54" width="1" height="1" transform="rotate(90 29 54)" fill="#FFEA79"/>
<rect x="26" y="49" width="1" height="1" transform="rotate(90 26 49)" fill="#FFEA79"/>
<rect x="26" y="50" width="1" height="1" transform="rotate(90 26 50)" fill="#FFEA79"/>
<rect x="25" y="49" width="1" height="1" transform="rotate(90 25 49)" fill="#FFEA79"/>
<rect x="25" y="50" width="1" height="1" transform="rotate(90 25 50)" fill="#FFEA79"/>
<rect x="22" y="45" width="1" height="1" transform="rotate(90 22 45)" fill="#FFEA79"/>
<rect x="22" y="46" width="1" height="1" transform="rotate(90 22 46)" fill="#FFEA79"/>
<rect x="21" y="45" width="1" height="1" transform="rotate(90 21 45)" fill="#FFEA79"/>
<rect x="21" y="46" width="1" height="1" transform="rotate(90 21 46)" fill="#FFEA79"/>
<rect x="18" y="41" width="1" height="1" transform="rotate(90 18 41)" fill="#FFEA79"/>
<rect x="18" y="42" width="1" height="1" transform="rotate(90 18 42)" fill="#FFEA79"/>
<rect x="17" y="41" width="1" height="1" transform="rotate(90 17 41)" fill="#FFEA79"/>
<rect x="17" y="42" width="1" height="1" transform="rotate(90 17 42)" fill="#FFEA79"/>
<rect x="14" y="37" width="1" height="1" transform="rotate(90 14 37)" fill="#FFEA79"/>
<rect x="14" y="38" width="1" height="1" transform="rotate(90 14 38)" fill="#FFEA79"/>
<rect x="13" y="37" width="1" height="1" transform="rotate(90 13 37)" fill="#FFEA79"/>
<rect x="13" y="38" width="1" height="1" transform="rotate(90 13 38)" fill="#FFEA79"/>
</svg>
