<svg width="80" height="80" viewBox="0 0 80 80" fill="none" xmlns="http://www.w3.org/2000/svg">
<rect x="1" y="79" width="78" height="78" rx="3" transform="rotate(-90 1 79)" fill="#FFEA79" stroke="#CCCCCC" stroke-width="2"/>
<rect x="14" y="43" width="4" height="52" transform="rotate(-90 14 43)" fill="#333333"/>
<rect x="18" y="39" width="4" height="44" transform="rotate(-90 18 39)" fill="#333333"/>
<rect x="22" y="35" width="4" height="36" transform="rotate(-90 22 35)" fill="#333333"/>
<rect x="26" y="31" width="4" height="28" transform="rotate(-90 26 31)" fill="#333333"/>
<rect x="30" y="27" width="4" height="20" transform="rotate(-90 30 27)" fill="#333333"/>
<rect x="38" y="19" width="4" height="4" transform="rotate(-90 38 19)" fill="#333333"/>
<rect x="34" y="23" width="4" height="12" transform="rotate(-90 34 23)" fill="#333333"/>
<rect x="12" y="43" width="1" height="1" transform="rotate(-90 12 43)" fill="#333333"/>
<rect x="12" y="42" width="1" height="1" transform="rotate(-90 12 42)" fill="#333333"/>
<rect x="13" y="43" width="1" height="1" transform="rotate(-90 13 43)" fill="#333333"/>
<rect x="13" y="42" width="1" height="1" transform="rotate(-90 13 42)" fill="#333333"/>
<rect x="12" y="47" width="2" height="28" transform="rotate(-90 12 47)" fill="#333333"/>
<rect x="12" y="45" width="2" height="28" transform="rotate(-90 12 45)" fill="#333333"/>
<rect x="40" y="47" width="2" height="28" transform="rotate(-90 40 47)" fill="#333333"/>
<rect x="40" y="45" width="2" height="28" transform="rotate(-90 40 45)" fill="#333333"/>
<rect x="12" y="53" width="2" height="28" transform="rotate(-90 12 53)" fill="#333333"/>
<rect x="12" y="51" width="2" height="28" transform="rotate(-90 12 51)" fill="#333333"/>
<rect x="40" y="53" width="2" height="28" transform="rotate(-90 40 53)" fill="#333333"/>
<rect x="40" y="51" width="2" height="28" transform="rotate(-90 40 51)" fill="#333333"/>
<rect x="12" y="59" width="2" height="28" transform="rotate(-90 12 59)" fill="#333333"/>
<rect x="12" y="57" width="2" height="28" transform="rotate(-90 12 57)" fill="#333333"/>
<rect x="40" y="59" width="2" height="28" transform="rotate(-90 40 59)" fill="#333333"/>
<rect x="40" y="57" width="2" height="28" transform="rotate(-90 40 57)" fill="#333333"/>
<rect x="12" y="65" width="2" height="28" transform="rotate(-90 12 65)" fill="#333333"/>
<rect x="12" y="63" width="2" height="28" transform="rotate(-90 12 63)" fill="#333333"/>
<rect x="40" y="65" width="2" height="28" transform="rotate(-90 40 65)" fill="#333333"/>
<rect x="40" y="63" width="2" height="28" transform="rotate(-90 40 63)" fill="#333333"/>
<rect x="16" y="39" width="1" height="1" transform="rotate(-90 16 39)" fill="#333333"/>
<rect x="16" y="38" width="1" height="1" transform="rotate(-90 16 38)" fill="#333333"/>
<rect x="17" y="39" width="1" height="1" transform="rotate(-90 17 39)" fill="#333333"/>
<rect x="17" y="38" width="1" height="1" transform="rotate(-90 17 38)" fill="#333333"/>
<rect x="20" y="35" width="1" height="1" transform="rotate(-90 20 35)" fill="#333333"/>
<rect x="20" y="34" width="1" height="1" transform="rotate(-90 20 34)" fill="#333333"/>
<rect x="21" y="35" width="1" height="1" transform="rotate(-90 21 35)" fill="#333333"/>
<rect x="21" y="34" width="1" height="1" transform="rotate(-90 21 34)" fill="#333333"/>
<rect x="24" y="31" width="1" height="1" transform="rotate(-90 24 31)" fill="#333333"/>
<rect x="24" y="30" width="1" height="1" transform="rotate(-90 24 30)" fill="#333333"/>
<rect x="25" y="31" width="1" height="1" transform="rotate(-90 25 31)" fill="#333333"/>
<rect x="25" y="30" width="1" height="1" transform="rotate(-90 25 30)" fill="#333333"/>
<rect x="28" y="27" width="1" height="1" transform="rotate(-90 28 27)" fill="#333333"/>
<rect x="28" y="26" width="1" height="1" transform="rotate(-90 28 26)" fill="#333333"/>
<rect x="29" y="27" width="1" height="1" transform="rotate(-90 29 27)" fill="#333333"/>
<rect x="29" y="26" width="1" height="1" transform="rotate(-90 29 26)" fill="#333333"/>
<rect x="32" y="23" width="1" height="1" transform="rotate(-90 32 23)" fill="#333333"/>
<rect x="32" y="22" width="1" height="1" transform="rotate(-90 32 22)" fill="#333333"/>
<rect x="33" y="23" width="1" height="1" transform="rotate(-90 33 23)" fill="#333333"/>
<rect x="33" y="22" width="1" height="1" transform="rotate(-90 33 22)" fill="#333333"/>
<rect x="36" y="19" width="1" height="1" transform="rotate(-90 36 19)" fill="#333333"/>
<rect x="36" y="18" width="1" height="1" transform="rotate(-90 36 18)" fill="#333333"/>
<rect x="37" y="19" width="1" height="1" transform="rotate(-90 37 19)" fill="#333333"/>
<rect x="37" y="18" width="1" height="1" transform="rotate(-90 37 18)" fill="#333333"/>
<rect x="42" y="19" width="1" height="1" transform="rotate(-90 42 19)" fill="#333333"/>
<rect x="42" y="18" width="1" height="1" transform="rotate(-90 42 18)" fill="#333333"/>
<rect x="43" y="19" width="1" height="1" transform="rotate(-90 43 19)" fill="#333333"/>
<rect x="43" y="18" width="1" height="1" transform="rotate(-90 43 18)" fill="#333333"/>
<rect x="46" y="23" width="1" height="1" transform="rotate(-90 46 23)" fill="#333333"/>
<rect x="46" y="22" width="1" height="1" transform="rotate(-90 46 22)" fill="#333333"/>
<rect x="47" y="23" width="1" height="1" transform="rotate(-90 47 23)" fill="#333333"/>
<rect x="47" y="22" width="1" height="1" transform="rotate(-90 47 22)" fill="#333333"/>
<rect x="50" y="27" width="1" height="1" transform="rotate(-90 50 27)" fill="#333333"/>
<rect x="50" y="26" width="1" height="1" transform="rotate(-90 50 26)" fill="#333333"/>
<rect x="51" y="27" width="1" height="1" transform="rotate(-90 51 27)" fill="#333333"/>
<rect x="51" y="26" width="1" height="1" transform="rotate(-90 51 26)" fill="#333333"/>
<rect x="54" y="31" width="1" height="1" transform="rotate(-90 54 31)" fill="#333333"/>
<rect x="54" y="30" width="1" height="1" transform="rotate(-90 54 30)" fill="#333333"/>
<rect x="55" y="31" width="1" height="1" transform="rotate(-90 55 31)" fill="#333333"/>
<rect x="55" y="30" width="1" height="1" transform="rotate(-90 55 30)" fill="#333333"/>
<rect x="58" y="35" width="1" height="1" transform="rotate(-90 58 35)" fill="#333333"/>
<rect x="58" y="34" width="1" height="1" transform="rotate(-90 58 34)" fill="#333333"/>
<rect x="59" y="35" width="1" height="1" transform="rotate(-90 59 35)" fill="#333333"/>
<rect x="59" y="34" width="1" height="1" transform="rotate(-90 59 34)" fill="#333333"/>
<rect x="62" y="39" width="1" height="1" transform="rotate(-90 62 39)" fill="#333333"/>
<rect x="62" y="38" width="1" height="1" transform="rotate(-90 62 38)" fill="#333333"/>
<rect x="63" y="39" width="1" height="1" transform="rotate(-90 63 39)" fill="#333333"/>
<rect x="63" y="38" width="1" height="1" transform="rotate(-90 63 38)" fill="#333333"/>
<rect x="66" y="43" width="1" height="1" transform="rotate(-90 66 43)" fill="#333333"/>
<rect x="66" y="42" width="1" height="1" transform="rotate(-90 66 42)" fill="#333333"/>
<rect x="67" y="43" width="1" height="1" transform="rotate(-90 67 43)" fill="#333333"/>
<rect x="67" y="42" width="1" height="1" transform="rotate(-90 67 42)" fill="#333333"/>
</svg>
