<svg width="80" height="80" viewBox="0 0 80 80" fill="none" xmlns="http://www.w3.org/2000/svg">
<rect x="79" y="79" width="78" height="78" rx="3" transform="rotate(180 79 79)" fill="#333333" stroke="#CCCCCC" stroke-width="2"/>
<rect x="43" y="66" width="4" height="52" transform="rotate(180 43 66)" fill="#FFEA79"/>
<rect x="39" y="62" width="4" height="44" transform="rotate(180 39 62)" fill="#FFEA79"/>
<rect x="35" y="58" width="4" height="36" transform="rotate(180 35 58)" fill="#FFEA79"/>
<rect x="31" y="54" width="4" height="28" transform="rotate(180 31 54)" fill="#FFEA79"/>
<rect x="27" y="50" width="4" height="20" transform="rotate(180 27 50)" fill="#FFEA79"/>
<rect x="19" y="42" width="4" height="4" transform="rotate(180 19 42)" fill="#FFEA79"/>
<rect x="23" y="46" width="4" height="12" transform="rotate(180 23 46)" fill="#FFEA79"/>
<rect x="43" y="68" width="1" height="1" transform="rotate(180 43 68)" fill="#FFEA79"/>
<rect x="42" y="68" width="1" height="1" transform="rotate(180 42 68)" fill="#FFEA79"/>
<rect x="43" y="67" width="1" height="1" transform="rotate(180 43 67)" fill="#FFEA79"/>
<rect x="42" y="67" width="1" height="1" transform="rotate(180 42 67)" fill="#FFEA79"/>
<rect x="47" y="68" width="2" height="28" transform="rotate(180 47 68)" fill="#FFEA79"/>
<rect x="45" y="68" width="2" height="28" transform="rotate(180 45 68)" fill="#FFEA79"/>
<rect x="47" y="40" width="2" height="28" transform="rotate(180 47 40)" fill="#FFEA79"/>
<rect x="45" y="40" width="2" height="28" transform="rotate(180 45 40)" fill="#FFEA79"/>
<rect x="53" y="68" width="2" height="28" transform="rotate(180 53 68)" fill="#FFEA79"/>
<rect x="51" y="68" width="2" height="28" transform="rotate(180 51 68)" fill="#FFEA79"/>
<rect x="53" y="40" width="2" height="28" transform="rotate(180 53 40)" fill="#FFEA79"/>
<rect x="51" y="40" width="2" height="28" transform="rotate(180 51 40)" fill="#FFEA79"/>
<rect x="59" y="68" width="2" height="28" transform="rotate(180 59 68)" fill="#FFEA79"/>
<rect x="57" y="68" width="2" height="28" transform="rotate(180 57 68)" fill="#FFEA79"/>
<rect x="59" y="40" width="2" height="28" transform="rotate(180 59 40)" fill="#FFEA79"/>
<rect x="57" y="40" width="2" height="28" transform="rotate(180 57 40)" fill="#FFEA79"/>
<rect x="65" y="68" width="2" height="28" transform="rotate(180 65 68)" fill="#FFEA79"/>
<rect x="63" y="68" width="2" height="28" transform="rotate(180 63 68)" fill="#FFEA79"/>
<rect x="65" y="40" width="2" height="28" transform="rotate(180 65 40)" fill="#FFEA79"/>
<rect x="63" y="40" width="2" height="28" transform="rotate(180 63 40)" fill="#FFEA79"/>
<rect x="39" y="64" width="1" height="1" transform="rotate(180 39 64)" fill="#FFEA79"/>
<rect x="38" y="64" width="1" height="1" transform="rotate(180 38 64)" fill="#FFEA79"/>
<rect x="39" y="63" width="1" height="1" transform="rotate(180 39 63)" fill="#FFEA79"/>
<rect x="38" y="63" width="1" height="1" transform="rotate(180 38 63)" fill="#FFEA79"/>
<rect x="35" y="60" width="1" height="1" transform="rotate(180 35 60)" fill="#FFEA79"/>
<rect x="34" y="60" width="1" height="1" transform="rotate(180 34 60)" fill="#FFEA79"/>
<rect x="35" y="59" width="1" height="1" transform="rotate(180 35 59)" fill="#FFEA79"/>
<rect x="34" y="59" width="1" height="1" transform="rotate(180 34 59)" fill="#FFEA79"/>
<rect x="31" y="56" width="1" height="1" transform="rotate(180 31 56)" fill="#FFEA79"/>
<rect x="30" y="56" width="1" height="1" transform="rotate(180 30 56)" fill="#FFEA79"/>
<rect x="31" y="55" width="1" height="1" transform="rotate(180 31 55)" fill="#FFEA79"/>
<rect x="30" y="55" width="1" height="1" transform="rotate(180 30 55)" fill="#FFEA79"/>
<rect x="27" y="52" width="1" height="1" transform="rotate(180 27 52)" fill="#FFEA79"/>
<rect x="26" y="52" width="1" height="1" transform="rotate(180 26 52)" fill="#FFEA79"/>
<rect x="27" y="51" width="1" height="1" transform="rotate(180 27 51)" fill="#FFEA79"/>
<rect x="26" y="51" width="1" height="1" transform="rotate(180 26 51)" fill="#FFEA79"/>
<rect x="23" y="48" width="1" height="1" transform="rotate(180 23 48)" fill="#FFEA79"/>
<rect x="22" y="48" width="1" height="1" transform="rotate(180 22 48)" fill="#FFEA79"/>
<rect x="23" y="47" width="1" height="1" transform="rotate(180 23 47)" fill="#FFEA79"/>
<rect x="22" y="47" width="1" height="1" transform="rotate(180 22 47)" fill="#FFEA79"/>
<rect x="19" y="44" width="1" height="1" transform="rotate(180 19 44)" fill="#FFEA79"/>
<rect x="18" y="44" width="1" height="1" transform="rotate(180 18 44)" fill="#FFEA79"/>
<rect x="19" y="43" width="1" height="1" transform="rotate(180 19 43)" fill="#FFEA79"/>
<rect x="18" y="43" width="1" height="1" transform="rotate(180 18 43)" fill="#FFEA79"/>
<rect x="19" y="38" width="1" height="1" transform="rotate(180 19 38)" fill="#FFEA79"/>
<rect x="18" y="38" width="1" height="1" transform="rotate(180 18 38)" fill="#FFEA79"/>
<rect x="19" y="37" width="1" height="1" transform="rotate(180 19 37)" fill="#FFEA79"/>
<rect x="18" y="37" width="1" height="1" transform="rotate(180 18 37)" fill="#FFEA79"/>
<rect x="23" y="34" width="1" height="1" transform="rotate(180 23 34)" fill="#FFEA79"/>
<rect x="22" y="34" width="1" height="1" transform="rotate(180 22 34)" fill="#FFEA79"/>
<rect x="23" y="33" width="1" height="1" transform="rotate(180 23 33)" fill="#FFEA79"/>
<rect x="22" y="33" width="1" height="1" transform="rotate(180 22 33)" fill="#FFEA79"/>
<rect x="27" y="30" width="1" height="1" transform="rotate(180 27 30)" fill="#FFEA79"/>
<rect x="26" y="30" width="1" height="1" transform="rotate(180 26 30)" fill="#FFEA79"/>
<rect x="27" y="29" width="1" height="1" transform="rotate(180 27 29)" fill="#FFEA79"/>
<rect x="26" y="29" width="1" height="1" transform="rotate(180 26 29)" fill="#FFEA79"/>
<rect x="31" y="26" width="1" height="1" transform="rotate(180 31 26)" fill="#FFEA79"/>
<rect x="30" y="26" width="1" height="1" transform="rotate(180 30 26)" fill="#FFEA79"/>
<rect x="31" y="25" width="1" height="1" transform="rotate(180 31 25)" fill="#FFEA79"/>
<rect x="30" y="25" width="1" height="1" transform="rotate(180 30 25)" fill="#FFEA79"/>
<rect x="35" y="22" width="1" height="1" transform="rotate(180 35 22)" fill="#FFEA79"/>
<rect x="34" y="22" width="1" height="1" transform="rotate(180 34 22)" fill="#FFEA79"/>
<rect x="35" y="21" width="1" height="1" transform="rotate(180 35 21)" fill="#FFEA79"/>
<rect x="34" y="21" width="1" height="1" transform="rotate(180 34 21)" fill="#FFEA79"/>
<rect x="39" y="18" width="1" height="1" transform="rotate(180 39 18)" fill="#FFEA79"/>
<rect x="38" y="18" width="1" height="1" transform="rotate(180 38 18)" fill="#FFEA79"/>
<rect x="39" y="17" width="1" height="1" transform="rotate(180 39 17)" fill="#FFEA79"/>
<rect x="38" y="17" width="1" height="1" transform="rotate(180 38 17)" fill="#FFEA79"/>
<rect x="43" y="14" width="1" height="1" transform="rotate(180 43 14)" fill="#FFEA79"/>
<rect x="42" y="14" width="1" height="1" transform="rotate(180 42 14)" fill="#FFEA79"/>
<rect x="43" y="13" width="1" height="1" transform="rotate(180 43 13)" fill="#FFEA79"/>
<rect x="42" y="13" width="1" height="1" transform="rotate(180 42 13)" fill="#FFEA79"/>
</svg>
