<svg width="80" height="80" viewBox="0 0 80 80" fill="none" xmlns="http://www.w3.org/2000/svg">
<rect x="1" y="1" width="78" height="78" rx="3" fill="#FFEA79" stroke="#CCCCCC" stroke-width="2"/>
<rect x="30" y="53" width="4" height="20" transform="rotate(-90 30 53)" fill="#333333"/>
<rect x="26" y="49" width="4" height="28" transform="rotate(-90 26 49)" fill="#333333"/>
<rect x="22" y="45" width="4" height="36" transform="rotate(-90 22 45)" fill="#333333"/>
<rect x="38" y="35" width="4" height="4" transform="rotate(-90 38 35)" fill="#333333"/>
<rect x="36" y="41" width="30" height="8" transform="rotate(-90 36 41)" fill="#333333"/>
<rect x="34" y="57" width="4" height="12" transform="rotate(-90 34 57)" fill="#333333"/>
<rect x="38" y="61" width="4" height="4" transform="rotate(-90 38 61)" fill="#333333"/>
<rect x="20" y="68" width="4" height="40" transform="rotate(-90 20 68)" fill="#333333"/>
<rect x="24" y="45" width="1" height="1" fill="#333333"/>
<rect x="25" y="45" width="1" height="1" fill="#333333"/>
<rect x="24" y="46" width="1" height="1" fill="#333333"/>
<rect x="25" y="46" width="1" height="1" fill="#333333"/>
<rect x="28" y="49" width="1" height="1" fill="#333333"/>
<rect x="29" y="49" width="1" height="1" fill="#333333"/>
<rect x="28" y="50" width="1" height="1" fill="#333333"/>
<rect x="29" y="50" width="1" height="1" fill="#333333"/>
<rect x="32" y="53" width="1" height="1" fill="#333333"/>
<rect x="33" y="53" width="1" height="1" fill="#333333"/>
<rect x="32" y="54" width="1" height="1" fill="#333333"/>
<rect x="33" y="54" width="1" height="1" fill="#333333"/>
<rect x="36" y="57" width="1" height="1" fill="#333333"/>
<rect x="37" y="57" width="1" height="1" fill="#333333"/>
<rect x="36" y="58" width="1" height="1" fill="#333333"/>
<rect x="37" y="58" width="1" height="1" fill="#333333"/>
<rect x="42" y="57" width="1" height="1" fill="#333333"/>
<rect x="43" y="57" width="1" height="1" fill="#333333"/>
<rect x="42" y="58" width="1" height="1" fill="#333333"/>
<rect x="43" y="58" width="1" height="1" fill="#333333"/>
<rect x="46" y="53" width="1" height="1" fill="#333333"/>
<rect x="47" y="53" width="1" height="1" fill="#333333"/>
<rect x="46" y="54" width="1" height="1" fill="#333333"/>
<rect x="47" y="54" width="1" height="1" fill="#333333"/>
<rect x="50" y="49" width="1" height="1" fill="#333333"/>
<rect x="51" y="49" width="1" height="1" fill="#333333"/>
<rect x="50" y="50" width="1" height="1" fill="#333333"/>
<rect x="51" y="50" width="1" height="1" fill="#333333"/>
<rect x="54" y="45" width="1" height="1" fill="#333333"/>
<rect x="55" y="45" width="1" height="1" fill="#333333"/>
<rect x="54" y="46" width="1" height="1" fill="#333333"/>
<rect x="55" y="46" width="1" height="1" fill="#333333"/>
</svg>
