<svg width="7140" height="1540" viewBox="0 0 7140 1540" fill="none" xmlns="http://www.w3.org/2000/svg">
<mask id="path-1-outside-1_945_5" maskUnits="userSpaceOnUse" x="0" y="0" width="7140" height="1540" fill="black">
<rect fill="white" width="7140" height="1540"/>
<path d="M20 720V520H120V420H220V320H320V220H420V120H20V20H720V220H620V320H520V420H420V520H320V620H720V720H20Z"/>
<path d="M1120 120V20H1320V120H1120ZM920 720V620H1120V320H1020V220H1320V620H1520V720H920Z"/>
<path d="M1720 720V620H1920V120H1820V20H2120V620H2320V720H1720Z"/>
<path d="M2520 720V620H2420V20H2620V220H3020V320H3120V620H3020V720H2520ZM2620 620H2920V320H2620V620Z"/>
<path d="M3320 720V620H3220V320H3320V220H3820V320H3920V520H3420V620H3820V720H3320ZM3420 420H3720V320H3420V420Z"/>
<path d="M4320 320H4420V420H4320V720H4120V220H4320V320ZM4720 220V320H4420V220H4720Z"/>
<path d="M20 1520V820H220V920H320V1020H420V920H520V820H720V1520H520V1120H420V1320H320V1120H220V1520H20Z"/>
<path d="M920 1520V1420H820V1120H920V1020H1420V1120H1520V1320H1020V1420H1420V1520H920ZM1020 1220H1320V1120H1020V1220Z"/>
<path d="M1720 1520V1420H1620V1120H1720V1020H2320V1120H1820V1420H2320V1520H1720Z"/>
<path d="M2420 1520V820H2620V1020H3020V1120H3120V1520H2920V1120H2620V1520H2420Z"/>
<path d="M3320 1520V1420H3220V1320H3320V1220H3720V1120H3320V1020H3820V1120H3920V1520H3320ZM3420 1420H3720V1320H3420V1420Z"/>
<path d="M4020 1520V1020H4620V1120H4720V1520H4520V1120H4220V1520H4020Z"/>
<path d="M5120 920V820H5320V920H5120ZM4920 1520V1420H5120V1120H5020V1020H5320V1420H5520V1520H4920Z"/>
<path d="M5720 1520V1420H5620V1120H5720V1020H6320V1120H5820V1420H6320V1520H5720Z"/>
<path d="M6420 1520V1420H6920V1320H6520V1220H6420V1120H6520V1020H7020V1120H6620V1220H7020V1320H7120V1420H7020V1520H6420Z"/>
</mask>
<path d="M20 720V520H120V420H220V320H320V220H420V120H20V20H720V220H620V320H520V420H420V520H320V620H720V720H20Z" fill="#FFEA79"/>
<path d="M1120 120V20H1320V120H1120ZM920 720V620H1120V320H1020V220H1320V620H1520V720H920Z" fill="#FFEA79"/>
<path d="M1720 720V620H1920V120H1820V20H2120V620H2320V720H1720Z" fill="#FFEA79"/>
<path d="M2520 720V620H2420V20H2620V220H3020V320H3120V620H3020V720H2520ZM2620 620H2920V320H2620V620Z" fill="#FFEA79"/>
<path d="M3320 720V620H3220V320H3320V220H3820V320H3920V520H3420V620H3820V720H3320ZM3420 420H3720V320H3420V420Z" fill="#FFEA79"/>
<path d="M4320 320H4420V420H4320V720H4120V220H4320V320ZM4720 220V320H4420V220H4720Z" fill="#FFEA79"/>
<path d="M20 1520V820H220V920H320V1020H420V920H520V820H720V1520H520V1120H420V1320H320V1120H220V1520H20Z" fill="#FFEA79"/>
<path d="M920 1520V1420H820V1120H920V1020H1420V1120H1520V1320H1020V1420H1420V1520H920ZM1020 1220H1320V1120H1020V1220Z" fill="#FFEA79"/>
<path d="M1720 1520V1420H1620V1120H1720V1020H2320V1120H1820V1420H2320V1520H1720Z" fill="#FFEA79"/>
<path d="M2420 1520V820H2620V1020H3020V1120H3120V1520H2920V1120H2620V1520H2420Z" fill="#FFEA79"/>
<path d="M3320 1520V1420H3220V1320H3320V1220H3720V1120H3320V1020H3820V1120H3920V1520H3320ZM3420 1420H3720V1320H3420V1420Z" fill="#FFEA79"/>
<path d="M4020 1520V1020H4620V1120H4720V1520H4520V1120H4220V1520H4020Z" fill="#FFEA79"/>
<path d="M5120 920V820H5320V920H5120ZM4920 1520V1420H5120V1120H5020V1020H5320V1420H5520V1520H4920Z" fill="#FFEA79"/>
<path d="M5720 1520V1420H5620V1120H5720V1020H6320V1120H5820V1420H6320V1520H5720Z" fill="#FFEA79"/>
<path d="M6420 1520V1420H6920V1320H6520V1220H6420V1120H6520V1020H7020V1120H6620V1220H7020V1320H7120V1420H7020V1520H6420Z" fill="#FFEA79"/>
<path d="M20 720H0V740H20V720ZM20 520V500H0V520H20ZM120 520V540H140V520H120ZM120 420V400H100V420H120ZM220 420V440H240V420H220ZM220 320V300H200V320H220ZM320 320V340H340V320H320ZM320 220V200H300V220H320ZM420 220V240H440V220H420ZM420 120H440V100H420V120ZM20 120H0V140H20V120ZM20 20V0H0V20H20ZM720 20H740V0H720V20ZM720 220V240H740V220H720ZM620 220V200H600V220H620ZM620 320V340H640V320H620ZM520 320V300H500V320H520ZM520 420V440H540V420H520ZM420 420V400H400V420H420ZM420 520V540H440V520H420ZM320 520V500H300V520H320ZM320 620H300V640H320V620ZM720 620H740V600H720V620ZM720 720V740H740V720H720ZM1120 120H1100V140H1120V120ZM1120 20V0H1100V20H1120ZM1320 20H1340V0H1320V20ZM1320 120V140H1340V120H1320ZM920 720H900V740H920V720ZM920 620V600H900V620H920ZM1120 620V640H1140V620H1120ZM1120 320H1140V300H1120V320ZM1020 320H1000V340H1020V320ZM1020 220V200H1000V220H1020ZM1320 220H1340V200H1320V220ZM1320 620H1300V640H1320V620ZM1520 620H1540V600H1520V620ZM1520 720V740H1540V720H1520ZM1720 720H1700V740H1720V720ZM1720 620V600H1700V620H1720ZM1920 620V640H1940V620H1920ZM1920 120H1940V100H1920V120ZM1820 120H1800V140H1820V120ZM1820 20V0H1800V20H1820ZM2120 20H2140V0H2120V20ZM2120 620H2100V640H2120V620ZM2320 620H2340V600H2320V620ZM2320 720V740H2340V720H2320ZM2520 720H2500V740H2520V720ZM2520 620H2540V600H2520V620ZM2420 620H2400V640H2420V620ZM2420 20V0H2400V20H2420ZM2620 20H2640V0H2620V20ZM2620 220H2600V240H2620V220ZM3020 220H3040V200H3020V220ZM3020 320H3000V340H3020V320ZM3120 320H3140V300H3120V320ZM3120 620V640H3140V620H3120ZM3020 620V600H3000V620H3020ZM3020 720V740H3040V720H3020ZM2620 620H2600V640H2620V620ZM2920 620V640H2940V620H2920ZM2920 320H2940V300H2920V320ZM2620 320V300H2600V320H2620ZM3320 720H3300V740H3320V720ZM3320 620H3340V600H3320V620ZM3220 620H3200V640H3220V620ZM3220 320V300H3200V320H3220ZM3320 320V340H3340V320H3320ZM3320 220V200H3300V220H3320ZM3820 220H3840V200H3820V220ZM3820 320H3800V340H3820V320ZM3920 320H3940V300H3920V320ZM3920 520V540H3940V520H3920ZM3420 520V500H3400V520H3420ZM3420 620H3400V640H3420V620ZM3820 620H3840V600H3820V620ZM3820 720V740H3840V720H3820ZM3420 420H3400V440H3420V420ZM3720 420V440H3740V420H3720ZM3720 320H3740V300H3720V320ZM3420 320V300H3400V320H3420ZM4320 320H4300V340H4320V320ZM4420 420V440H4440V420H4420ZM4320 420V400H4300V420H4320ZM4320 720V740H4340V720H4320ZM4120 720H4100V740H4120V720ZM4120 220V200H4100V220H4120ZM4320 220H4340V200H4320V220ZM4720 220H4740V200H4720V220ZM4720 320V340H4740V320H4720ZM4420 220V200H4400V220H4420ZM20 1520H0V1540H20V1520ZM20 820V800H0V820H20ZM220 820H240V800H220V820ZM220 920H200V940H220V920ZM320 920H340V900H320V920ZM320 1020H300V1040H320V1020ZM420 1020V1040H440V1020H420ZM420 920V900H400V920H420ZM520 920V940H540V920H520ZM520 820V800H500V820H520ZM720 820H740V800H720V820ZM720 1520V1540H740V1520H720ZM520 1520H500V1540H520V1520ZM520 1120H540V1100H520V1120ZM420 1120V1100H400V1120H420ZM420 1320V1340H440V1320H420ZM320 1320H300V1340H320V1320ZM320 1120H340V1100H320V1120ZM220 1120V1100H200V1120H220ZM220 1520V1540H240V1520H220ZM920 1520H900V1540H920V1520ZM920 1420H940V1400H920V1420ZM820 1420H800V1440H820V1420ZM820 1120V1100H800V1120H820ZM920 1120V1140H940V1120H920ZM920 1020V1000H900V1020H920ZM1420 1020H1440V1000H1420V1020ZM1420 1120H1400V1140H1420V1120ZM1520 1120H1540V1100H1520V1120ZM1520 1320V1340H1540V1320H1520ZM1020 1320V1300H1000V1320H1020ZM1020 1420H1000V1440H1020V1420ZM1420 1420H1440V1400H1420V1420ZM1420 1520V1540H1440V1520H1420ZM1020 1220H1000V1240H1020V1220ZM1320 1220V1240H1340V1220H1320ZM1320 1120H1340V1100H1320V1120ZM1020 1120V1100H1000V1120H1020ZM1720 1520H1700V1540H1720V1520ZM1720 1420H1740V1400H1720V1420ZM1620 1420H1600V1440H1620V1420ZM1620 1120V1100H1600V1120H1620ZM1720 1120V1140H1740V1120H1720ZM1720 1020V1000H1700V1020H1720ZM2320 1020H2340V1000H2320V1020ZM2320 1120V1140H2340V1120H2320ZM1820 1120V1100H1800V1120H1820ZM1820 1420H1800V1440H1820V1420ZM2320 1420H2340V1400H2320V1420ZM2320 1520V1540H2340V1520H2320ZM2420 1520H2400V1540H2420V1520ZM2420 820V800H2400V820H2420ZM2620 820H2640V800H2620V820ZM2620 1020H2600V1040H2620V1020ZM3020 1020H3040V1000H3020V1020ZM3020 1120H3000V1140H3020V1120ZM3120 1120H3140V1100H3120V1120ZM3120 1520V1540H3140V1520H3120ZM2920 1520H2900V1540H2920V1520ZM2920 1120H2940V1100H2920V1120ZM2620 1120V1100H2600V1120H2620ZM2620 1520V1540H2640V1520H2620ZM3320 1520H3300V1540H3320V1520ZM3320 1420H3340V1400H3320V1420ZM3220 1420H3200V1440H3220V1420ZM3220 1320V1300H3200V1320H3220ZM3320 1320V1340H3340V1320H3320ZM3320 1220V1200H3300V1220H3320ZM3720 1220V1240H3740V1220H3720ZM3720 1120H3740V1100H3720V1120ZM3320 1120H3300V1140H3320V1120ZM3320 1020V1000H3300V1020H3320ZM3820 1020H3840V1000H3820V1020ZM3820 1120H3800V1140H3820V1120ZM3920 1120H3940V1100H3920V1120ZM3920 1520V1540H3940V1520H3920ZM3420 1420H3400V1440H3420V1420ZM3720 1420V1440H3740V1420H3720ZM3720 1320H3740V1300H3720V1320ZM3420 1320V1300H3400V1320H3420ZM4020 1520H4000V1540H4020V1520ZM4020 1020V1000H4000V1020H4020ZM4620 1020H4640V1000H4620V1020ZM4620 1120H4600V1140H4620V1120ZM4720 1120H4740V1100H4720V1120ZM4720 1520V1540H4740V1520H4720ZM4520 1520H4500V1540H4520V1520ZM4520 1120H4540V1100H4520V1120ZM4220 1120V1100H4200V1120H4220ZM4220 1520V1540H4240V1520H4220ZM5120 920H5100V940H5120V920ZM5120 820V800H5100V820H5120ZM5320 820H5340V800H5320V820ZM5320 920V940H5340V920H5320ZM4920 1520H4900V1540H4920V1520ZM4920 1420V1400H4900V1420H4920ZM5120 1420V1440H5140V1420H5120ZM5120 1120H5140V1100H5120V1120ZM5020 1120H5000V1140H5020V1120ZM5020 1020V1000H5000V1020H5020ZM5320 1020H5340V1000H5320V1020ZM5320 1420H5300V1440H5320V1420ZM5520 1420H5540V1400H5520V1420ZM5520 1520V1540H5540V1520H5520ZM5720 1520H5700V1540H5720V1520ZM5720 1420H5740V1400H5720V1420ZM5620 1420H5600V1440H5620V1420ZM5620 1120V1100H5600V1120H5620ZM5720 1120V1140H5740V1120H5720ZM5720 1020V1000H5700V1020H5720ZM6320 1020H6340V1000H6320V1020ZM6320 1120V1140H6340V1120H6320ZM5820 1120V1100H5800V1120H5820ZM5820 1420H5800V1440H5820V1420ZM6320 1420H6340V1400H6320V1420ZM6320 1520V1540H6340V1520H6320ZM6420 1520H6400V1540H6420V1520ZM6420 1420V1400H6400V1420H6420ZM6920 1420V1440H6940V1420H6920ZM6920 1320H6940V1300H6920V1320ZM6520 1320H6500V1340H6520V1320ZM6520 1220H6540V1200H6520V1220ZM6420 1220H6400V1240H6420V1220ZM6420 1120V1100H6400V1120H6420ZM6520 1120V1140H6540V1120H6520ZM6520 1020V1000H6500V1020H6520ZM7020 1020H7040V1000H7020V1020ZM7020 1120V1140H7040V1120H7020ZM6620 1120V1100H6600V1120H6620ZM6620 1220H6600V1240H6620V1220ZM7020 1220H7040V1200H7020V1220ZM7020 1320H7000V1340H7020V1320ZM7120 1320H7140V1300H7120V1320ZM7120 1420V1440H7140V1420H7120ZM7020 1420V1400H7000V1420H7020ZM7020 1520V1540H7040V1520H7020ZM20 720H40V520H20H0V720H20ZM20 520V540H120V520V500H20V520ZM120 520H140V420H120H100V520H120ZM120 420V440H220V420V400H120V420ZM220 420H240V320H220H200V420H220ZM220 320V340H320V320V300H220V320ZM320 320H340V220H320H300V320H320ZM320 220V240H420V220V200H320V220ZM420 220H440V120H420H400V220H420ZM420 120V100H20V120V140H420V120ZM20 120H40V20H20H0V120H20ZM20 20V40H720V20V0H20V20ZM720 20H700V220H720H740V20H720ZM720 220V200H620V220V240H720V220ZM620 220H600V320H620H640V220H620ZM620 320V300H520V320V340H620V320ZM520 320H500V420H520H540V320H520ZM520 420V400H420V420V440H520V420ZM420 420H400V520H420H440V420H420ZM420 520V500H320V520V540H420V520ZM320 520H300V620H320H340V520H320ZM320 620V640H720V620V600H320V620ZM720 620H700V720H720H740V620H720ZM720 720V700H20V720V740H720V720ZM1120 120H1140V20H1120H1100V120H1120ZM1120 20V40H1320V20V0H1120V20ZM1320 20H1300V120H1320H1340V20H1320ZM1320 120V100H1120V120V140H1320V120ZM920 720H940V620H920H900V720H920ZM920 620V640H1120V620V600H920V620ZM1120 620H1140V320H1120H1100V620H1120ZM1120 320V300H1020V320V340H1120V320ZM1020 320H1040V220H1020H1000V320H1020ZM1020 220V240H1320V220V200H1020V220ZM1320 220H1300V620H1320H1340V220H1320ZM1320 620V640H1520V620V600H1320V620ZM1520 620H1500V720H1520H1540V620H1520ZM1520 720V700H920V720V740H1520V720ZM1720 720H1740V620H1720H1700V720H1720ZM1720 620V640H1920V620V600H1720V620ZM1920 620H1940V120H1920H1900V620H1920ZM1920 120V100H1820V120V140H1920V120ZM1820 120H1840V20H1820H1800V120H1820ZM1820 20V40H2120V20V0H1820V20ZM2120 20H2100V620H2120H2140V20H2120ZM2120 620V640H2320V620V600H2120V620ZM2320 620H2300V720H2320H2340V620H2320ZM2320 720V700H1720V720V740H2320V720ZM2520 720H2540V620H2520H2500V720H2520ZM2520 620V600H2420V620V640H2520V620ZM2420 620H2440V20H2420H2400V620H2420ZM2420 20V40H2620V20V0H2420V20ZM2620 20H2600V220H2620H2640V20H2620ZM2620 220V240H3020V220V200H2620V220ZM3020 220H3000V320H3020H3040V220H3020ZM3020 320V340H3120V320V300H3020V320ZM3120 320H3100V620H3120H3140V320H3120ZM3120 620V600H3020V620V640H3120V620ZM3020 620H3000V720H3020H3040V620H3020ZM3020 720V700H2520V720V740H3020V720ZM2620 620V640H2920V620V600H2620V620ZM2920 620H2940V320H2920H2900V620H2920ZM2920 320V300H2620V320V340H2920V320ZM2620 320H2600V620H2620H2640V320H2620ZM3320 720H3340V620H3320H3300V720H3320ZM3320 620V600H3220V620V640H3320V620ZM3220 620H3240V320H3220H3200V620H3220ZM3220 320V340H3320V320V300H3220V320ZM3320 320H3340V220H3320H3300V320H3320ZM3320 220V240H3820V220V200H3320V220ZM3820 220H3800V320H3820H3840V220H3820ZM3820 320V340H3920V320V300H3820V320ZM3920 320H3900V520H3920H3940V320H3920ZM3920 520V500H3420V520V540H3920V520ZM3420 520H3400V620H3420H3440V520H3420ZM3420 620V640H3820V620V600H3420V620ZM3820 620H3800V720H3820H3840V620H3820ZM3820 720V700H3320V720V740H3820V720ZM3420 420V440H3720V420V400H3420V420ZM3720 420H3740V320H3720H3700V420H3720ZM3720 320V300H3420V320V340H3720V320ZM3420 320H3400V420H3420H3440V320H3420ZM4320 320V340H4420V320V300H4320V320ZM4420 320H4400V420H4420H4440V320H4420ZM4420 420V400H4320V420V440H4420V420ZM4320 420H4300V720H4320H4340V420H4320ZM4320 720V700H4120V720V740H4320V720ZM4120 720H4140V220H4120H4100V720H4120ZM4120 220V240H4320V220V200H4120V220ZM4320 220H4300V320H4320H4340V220H4320ZM4720 220H4700V320H4720H4740V220H4720ZM4720 320V300H4420V320V340H4720V320ZM4420 320H4440V220H4420H4400V320H4420ZM4420 220V240H4720V220V200H4420V220ZM20 1520H40V820H20H0V1520H20ZM20 820V840H220V820V800H20V820ZM220 820H200V920H220H240V820H220ZM220 920V940H320V920V900H220V920ZM320 920H300V1020H320H340V920H320ZM320 1020V1040H420V1020V1000H320V1020ZM420 1020H440V920H420H400V1020H420ZM420 920V940H520V920V900H420V920ZM520 920H540V820H520H500V920H520ZM520 820V840H720V820V800H520V820ZM720 820H700V1520H720H740V820H720ZM720 1520V1500H520V1520V1540H720V1520ZM520 1520H540V1120H520H500V1520H520ZM520 1120V1100H420V1120V1140H520V1120ZM420 1120H400V1320H420H440V1120H420ZM420 1320V1300H320V1320V1340H420V1320ZM320 1320H340V1120H320H300V1320H320ZM320 1120V1100H220V1120V1140H320V1120ZM220 1120H200V1520H220H240V1120H220ZM220 1520V1500H20V1520V1540H220V1520ZM920 1520H940V1420H920H900V1520H920ZM920 1420V1400H820V1420V1440H920V1420ZM820 1420H840V1120H820H800V1420H820ZM820 1120V1140H920V1120V1100H820V1120ZM920 1120H940V1020H920H900V1120H920ZM920 1020V1040H1420V1020V1000H920V1020ZM1420 1020H1400V1120H1420H1440V1020H1420ZM1420 1120V1140H1520V1120V1100H1420V1120ZM1520 1120H1500V1320H1520H1540V1120H1520ZM1520 1320V1300H1020V1320V1340H1520V1320ZM1020 1320H1000V1420H1020H1040V1320H1020ZM1020 1420V1440H1420V1420V1400H1020V1420ZM1420 1420H1400V1520H1420H1440V1420H1420ZM1420 1520V1500H920V1520V1540H1420V1520ZM1020 1220V1240H1320V1220V1200H1020V1220ZM1320 1220H1340V1120H1320H1300V1220H1320ZM1320 1120V1100H1020V1120V1140H1320V1120ZM1020 1120H1000V1220H1020H1040V1120H1020ZM1720 1520H1740V1420H1720H1700V1520H1720ZM1720 1420V1400H1620V1420V1440H1720V1420ZM1620 1420H1640V1120H1620H1600V1420H1620ZM1620 1120V1140H1720V1120V1100H1620V1120ZM1720 1120H1740V1020H1720H1700V1120H1720ZM1720 1020V1040H2320V1020V1000H1720V1020ZM2320 1020H2300V1120H2320H2340V1020H2320ZM2320 1120V1100H1820V1120V1140H2320V1120ZM1820 1120H1800V1420H1820H1840V1120H1820ZM1820 1420V1440H2320V1420V1400H1820V1420ZM2320 1420H2300V1520H2320H2340V1420H2320ZM2320 1520V1500H1720V1520V1540H2320V1520ZM2420 1520H2440V820H2420H2400V1520H2420ZM2420 820V840H2620V820V800H2420V820ZM2620 820H2600V1020H2620H2640V820H2620ZM2620 1020V1040H3020V1020V1000H2620V1020ZM3020 1020H3000V1120H3020H3040V1020H3020ZM3020 1120V1140H3120V1120V1100H3020V1120ZM3120 1120H3100V1520H3120H3140V1120H3120ZM3120 1520V1500H2920V1520V1540H3120V1520ZM2920 1520H2940V1120H2920H2900V1520H2920ZM2920 1120V1100H2620V1120V1140H2920V1120ZM2620 1120H2600V1520H2620H2640V1120H2620ZM2620 1520V1500H2420V1520V1540H2620V1520ZM3320 1520H3340V1420H3320H3300V1520H3320ZM3320 1420V1400H3220V1420V1440H3320V1420ZM3220 1420H3240V1320H3220H3200V1420H3220ZM3220 1320V1340H3320V1320V1300H3220V1320ZM3320 1320H3340V1220H3320H3300V1320H3320ZM3320 1220V1240H3720V1220V1200H3320V1220ZM3720 1220H3740V1120H3720H3700V1220H3720ZM3720 1120V1100H3320V1120V1140H3720V1120ZM3320 1120H3340V1020H3320H3300V1120H3320ZM3320 1020V1040H3820V1020V1000H3320V1020ZM3820 1020H3800V1120H3820H3840V1020H3820ZM3820 1120V1140H3920V1120V1100H3820V1120ZM3920 1120H3900V1520H3920H3940V1120H3920ZM3920 1520V1500H3320V1520V1540H3920V1520ZM3420 1420V1440H3720V1420V1400H3420V1420ZM3720 1420H3740V1320H3720H3700V1420H3720ZM3720 1320V1300H3420V1320V1340H3720V1320ZM3420 1320H3400V1420H3420H3440V1320H3420ZM4020 1520H4040V1020H4020H4000V1520H4020ZM4020 1020V1040H4620V1020V1000H4020V1020ZM4620 1020H4600V1120H4620H4640V1020H4620ZM4620 1120V1140H4720V1120V1100H4620V1120ZM4720 1120H4700V1520H4720H4740V1120H4720ZM4720 1520V1500H4520V1520V1540H4720V1520ZM4520 1520H4540V1120H4520H4500V1520H4520ZM4520 1120V1100H4220V1120V1140H4520V1120ZM4220 1120H4200V1520H4220H4240V1120H4220ZM4220 1520V1500H4020V1520V1540H4220V1520ZM5120 920H5140V820H5120H5100V920H5120ZM5120 820V840H5320V820V800H5120V820ZM5320 820H5300V920H5320H5340V820H5320ZM5320 920V900H5120V920V940H5320V920ZM4920 1520H4940V1420H4920H4900V1520H4920ZM4920 1420V1440H5120V1420V1400H4920V1420ZM5120 1420H5140V1120H5120H5100V1420H5120ZM5120 1120V1100H5020V1120V1140H5120V1120ZM5020 1120H5040V1020H5020H5000V1120H5020ZM5020 1020V1040H5320V1020V1000H5020V1020ZM5320 1020H5300V1420H5320H5340V1020H5320ZM5320 1420V1440H5520V1420V1400H5320V1420ZM5520 1420H5500V1520H5520H5540V1420H5520ZM5520 1520V1500H4920V1520V1540H5520V1520ZM5720 1520H5740V1420H5720H5700V1520H5720ZM5720 1420V1400H5620V1420V1440H5720V1420ZM5620 1420H5640V1120H5620H5600V1420H5620ZM5620 1120V1140H5720V1120V1100H5620V1120ZM5720 1120H5740V1020H5720H5700V1120H5720ZM5720 1020V1040H6320V1020V1000H5720V1020ZM6320 1020H6300V1120H6320H6340V1020H6320ZM6320 1120V1100H5820V1120V1140H6320V1120ZM5820 1120H5800V1420H5820H5840V1120H5820ZM5820 1420V1440H6320V1420V1400H5820V1420ZM6320 1420H6300V1520H6320H6340V1420H6320ZM6320 1520V1500H5720V1520V1540H6320V1520ZM6420 1520H6440V1420H6420H6400V1520H6420ZM6420 1420V1440H6920V1420V1400H6420V1420ZM6920 1420H6940V1320H6920H6900V1420H6920ZM6920 1320V1300H6520V1320V1340H6920V1320ZM6520 1320H6540V1220H6520H6500V1320H6520ZM6520 1220V1200H6420V1220V1240H6520V1220ZM6420 1220H6440V1120H6420H6400V1220H6420ZM6420 1120V1140H6520V1120V1100H6420V1120ZM6520 1120H6540V1020H6520H6500V1120H6520ZM6520 1020V1040H7020V1020V1000H6520V1020ZM7020 1020H7000V1120H7020H7040V1020H7020ZM7020 1120V1100H6620V1120V1140H7020V1120ZM6620 1120H6600V1220H6620H6640V1120H6620ZM6620 1220V1240H7020V1220V1200H6620V1220ZM7020 1220H7000V1320H7020H7040V1220H7020ZM7020 1320V1340H7120V1320V1300H7020V1320ZM7120 1320H7100V1420H7120H7140V1320H7120ZM7120 1420V1400H7020V1420V1440H7120V1420ZM7020 1420H7000V1520H7020H7040V1420H7020ZM7020 1520V1500H6420V1520V1540H7020V1520Z" fill="black" mask="url(#path-1-outside-1_945_5)"/>
</svg>
