<svg width="240" height="240" viewBox="0 0 240 240" fill="none" xmlns="http://www.w3.org/2000/svg">
<rect x="1" y="1" width="238" height="238" rx="3" fill="#FFEA79" stroke="#CCCCCC" stroke-width="2"/>
<rect x="20" y="20" width="80" height="20" fill="#333333"/>
<rect x="168" y="80" width="52" height="20" fill="#333333"/>
<rect x="168" y="192" width="43" height="20" fill="#333333"/>
<rect x="115" y="10" width="25" height="25" fill="#333333"/>
<rect x="92" y="207" width="61" height="5" fill="#333333"/>
<rect x="92" y="199" width="61" height="5" fill="#333333"/>
<rect x="89" y="188" width="24" height="5" transform="rotate(90 89 188)" fill="#333333"/>
<rect x="126" y="180" width="42" height="5" transform="rotate(180 126 180)" fill="#333333"/>
<rect x="20.5" y="152.5" width="59" height="59" fill="#EEDE89" stroke="black"/>
<rect x="92" y="191" width="61" height="5" fill="#333333"/>
<rect x="130" y="180" width="52" height="5" transform="rotate(-90 130 180)" fill="#333333"/>
<rect x="84" y="183" width="24" height="5" fill="#333333"/>
<rect x="111" y="183" width="24" height="5" fill="#333333"/>
<rect x="40" y="60" width="80" height="20" transform="rotate(90 40 60)" fill="#333333"/>
<rect x="197" y="80" width="115" height="29" transform="rotate(90 197 80)" fill="#333333"/>
<rect x="220" y="20" width="37" height="37" transform="rotate(90 220 20)" fill="#333333"/>
<rect x="106" y="94" width="2" height="2" fill="#FE1C1C"/>
<rect x="108" y="94" width="2" height="2" fill="#FE1C1C"/>
<rect x="106" y="92" width="2" height="2" fill="#FE1C1C"/>
<rect x="106" y="90" width="2" height="2" fill="#FE1C1C"/>
<rect x="108" y="90" width="2" height="2" fill="#FE1C1C"/>
<rect x="110" y="90" width="2" height="2" fill="#FE1C1C"/>
<rect x="112" y="92" width="2" height="2" fill="#FE1C1C"/>
<rect x="114" y="94" width="2" height="2" fill="#FE1C1C"/>
<rect x="116" y="96" width="2" height="2" fill="#FE1C1C"/>
<rect x="116" y="98" width="2" height="2" fill="#FE1C1C"/>
<rect x="116" y="100" width="2" height="2" fill="#FE1C1C"/>
<rect x="114" y="102" width="2" height="2" fill="#FE1C1C"/>
<rect x="112" y="104" width="2" height="2" fill="#FE1C1C"/>
<rect x="110" y="106" width="2" height="2" fill="#FE1C1C"/>
<rect x="108" y="106" width="2" height="2" fill="#FE1C1C"/>
<rect x="106" y="106" width="2" height="2" fill="#FE1C1C"/>
<rect x="104" y="104" width="2" height="2" fill="#FE1C1C"/>
<rect x="102" y="102" width="2" height="2" fill="#FE1C1C"/>
<rect x="100" y="100" width="2" height="2" fill="#FE1C1C"/>
<rect x="100" y="98" width="2" height="2" fill="#FE1C1C"/>
<rect x="100" y="96" width="2" height="2" fill="#FE1C1C"/>
<rect x="102" y="94" width="2" height="2" fill="#FE1C1C"/>
<rect x="104" y="92" width="2" height="2" fill="#FE1C1C"/>
<rect x="108" y="92" width="2" height="2" fill="#FE1C1C"/>
<rect x="110" y="92" width="2" height="2" fill="#FE1C1C"/>
<rect x="114" y="96" width="2" height="2" fill="#FE1C1C"/>
<rect x="114" y="98" width="2" height="2" fill="#FE1C1C"/>
<rect x="114" y="100" width="2" height="2" fill="#FE1C1C"/>
<rect x="110" y="104" width="2" height="2" fill="#FE1C1C"/>
<rect x="108" y="104" width="2" height="2" fill="#FE1C1C"/>
<rect x="106" y="104" width="2" height="2" fill="#FE1C1C"/>
<rect x="102" y="100" width="2" height="2" fill="#FE1C1C"/>
<rect x="102" y="98" width="2" height="2" fill="#FE1C1C"/>
<rect x="102" y="96" width="2" height="2" fill="#FE1C1C"/>
<rect x="106" y="98" width="2" height="2" fill="#FE1C1C"/>
<rect x="108" y="98" width="2" height="2" fill="#FE1C1C"/>
<rect x="110" y="98" width="2" height="2" fill="#FE1C1C"/>
<rect x="104" y="94" width="2" height="2" fill="#FE1C1C"/>
<rect x="112" y="94" width="2" height="2" fill="#FE1C1C"/>
<rect x="112" y="98" width="2" height="2" fill="#FE1C1C"/>
<rect x="104" y="98" width="2" height="2" fill="#FE1C1C"/>
<rect x="110" y="94" width="2" height="2" fill="#FE1C1C"/>
<rect x="104" y="98" width="2" height="10" transform="rotate(-90 104 98)" fill="#FE1C1C"/>
<rect x="104" y="102" width="2" height="10" transform="rotate(-90 104 102)" fill="#FE1C1C"/>
<rect x="104" y="104" width="2" height="10" transform="rotate(-90 104 104)" fill="#FE1C1C"/>
</svg>
