<svg width="80" height="80" viewBox="0 0 80 80" fill="none" xmlns="http://www.w3.org/2000/svg">
<rect x="1" y="1" width="78" height="78" rx="3" fill="#FFEA79" stroke="#CCCCCC" stroke-width="2"/>
<rect x="20" y="10" width="4" height="49" fill="#333333"/>
<rect x="24" y="12" width="4" height="51" fill="#333333"/>
<rect x="28" y="16" width="4" height="51" fill="#333333"/>
<rect x="32" y="20" width="4" height="49" fill="#333333"/>
<rect x="44" y="10" width="4" height="49" fill="#333333"/>
<rect x="48" y="12" width="4" height="51" fill="#333333"/>
<rect x="52" y="16" width="4" height="51" fill="#333333"/>
<rect x="56" y="20" width="4" height="49" fill="#333333"/>
<rect x="30" y="67" width="1" height="1" fill="#333333"/>
<rect x="31" y="67" width="1" height="1" fill="#333333"/>
<rect x="30" y="68" width="1" height="1" fill="#333333"/>
<rect x="31" y="68" width="1" height="1" fill="#333333"/>
<rect x="26" y="63" width="1" height="1" fill="#333333"/>
<rect x="27" y="63" width="1" height="1" fill="#333333"/>
<rect x="26" y="64" width="1" height="1" fill="#333333"/>
<rect x="27" y="64" width="1" height="1" fill="#333333"/>
<rect x="22" y="59" width="1" height="1" fill="#333333"/>
<rect x="23" y="59" width="1" height="1" fill="#333333"/>
<rect x="22" y="60" width="1" height="1" fill="#333333"/>
<rect x="23" y="60" width="1" height="1" fill="#333333"/>
<rect x="46" y="59" width="1" height="1" fill="#333333"/>
<rect x="47" y="59" width="1" height="1" fill="#333333"/>
<rect x="46" y="60" width="1" height="1" fill="#333333"/>
<rect x="47" y="60" width="1" height="1" fill="#333333"/>
<rect x="50" y="63" width="1" height="1" fill="#333333"/>
<rect x="51" y="63" width="1" height="1" fill="#333333"/>
<rect x="50" y="64" width="1" height="1" fill="#333333"/>
<rect x="51" y="64" width="1" height="1" fill="#333333"/>
<rect x="54" y="67" width="1" height="1" fill="#333333"/>
<rect x="55" y="67" width="1" height="1" fill="#333333"/>
<rect x="54" y="68" width="1" height="1" fill="#333333"/>
<rect x="55" y="68" width="1" height="1" fill="#333333"/>
<rect x="56" y="18" width="1" height="1" fill="#333333"/>
<rect x="57" y="18" width="1" height="1" fill="#333333"/>
<rect x="56" y="19" width="1" height="1" fill="#333333"/>
<rect x="57" y="19" width="1" height="1" fill="#333333"/>
<rect x="52" y="14" width="1" height="1" fill="#333333"/>
<rect x="53" y="14" width="1" height="1" fill="#333333"/>
<rect x="52" y="15" width="1" height="1" fill="#333333"/>
<rect x="53" y="15" width="1" height="1" fill="#333333"/>
<rect x="32" y="18" width="1" height="1" fill="#333333"/>
<rect x="33" y="18" width="1" height="1" fill="#333333"/>
<rect x="32" y="19" width="1" height="1" fill="#333333"/>
<rect x="33" y="19" width="1" height="1" fill="#333333"/>
<rect x="48" y="10" width="1" height="1" fill="#333333"/>
<rect x="49" y="10" width="1" height="1" fill="#333333"/>
<rect x="48" y="11" width="1" height="1" fill="#333333"/>
<rect x="49" y="11" width="1" height="1" fill="#333333"/>
<rect x="28" y="14" width="1" height="1" fill="#333333"/>
<rect x="29" y="14" width="1" height="1" fill="#333333"/>
<rect x="28" y="15" width="1" height="1" fill="#333333"/>
<rect x="29" y="15" width="1" height="1" fill="#333333"/>
<rect x="24" y="10" width="1" height="1" fill="#333333"/>
<rect x="25" y="10" width="1" height="1" fill="#333333"/>
<rect x="24" y="11" width="1" height="1" fill="#333333"/>
<rect x="25" y="11" width="1" height="1" fill="#333333"/>
</svg>
