<svg width="80" height="80" viewBox="0 0 80 80" fill="none" xmlns="http://www.w3.org/2000/svg">
<rect x="1" y="1" width="78" height="78" rx="3" fill="#FFEA79" stroke="#CCCCCC" stroke-width="2"/>
<rect x="20" y="11" width="4" height="57" fill="#333333"/>
<rect x="27" y="49" width="4" height="26" transform="rotate(-90 27 49)" fill="#333333"/>
<rect x="38" y="35" width="4" height="4" transform="rotate(-90 38 35)" fill="#333333"/>
<rect x="37" y="36" width="6" height="6" transform="rotate(-90 37 36)" fill="#333333"/>
<rect x="38" y="37" width="4" height="4" transform="rotate(-90 38 37)" fill="#333333"/>
<rect x="36" y="35" width="4" height="4" transform="rotate(-90 36 35)" fill="#333333"/>
<rect x="40" y="35" width="4" height="4" transform="rotate(-90 40 35)" fill="#333333"/>
<rect x="38" y="33" width="4" height="4" transform="rotate(-90 38 33)" fill="#333333"/>
<rect x="27" y="55" width="4" height="26" transform="rotate(-90 27 55)" fill="#333333"/>
<rect x="27" y="61" width="4" height="26" transform="rotate(-90 27 61)" fill="#333333"/>
<rect x="20" y="68" width="4" height="40" transform="rotate(-90 20 68)" fill="#333333"/>
<rect x="20" y="15" width="4" height="20" transform="rotate(-90 20 15)" fill="#333333"/>
<rect x="40" y="11" width="4" height="4" fill="#333333"/>
<rect width="4" height="1" transform="matrix(1 0 0 -1 36 12)" fill="#333333"/>
<rect x="44" y="11" width="4" height="4" fill="#333333"/>
<rect x="48" y="15" width="4" height="4" fill="#333333"/>
<rect x="56" y="23" width="4" height="41" fill="#333333"/>
<rect x="52" y="19" width="4" height="4" fill="#333333"/>
<rect x="48" y="13" width="1" height="1" fill="#333333"/>
<rect x="49" y="13" width="1" height="1" fill="#333333"/>
<rect x="48" y="14" width="1" height="1" fill="#333333"/>
<rect x="49" y="14" width="1" height="1" fill="#333333"/>
<rect x="46" y="15" width="1" height="1" fill="#333333"/>
<rect x="47" y="15" width="1" height="1" fill="#333333"/>
<rect x="46" y="16" width="1" height="1" fill="#333333"/>
<rect x="47" y="16" width="1" height="1" fill="#333333"/>
<rect x="52" y="17" width="1" height="1" fill="#333333"/>
<rect x="53" y="17" width="1" height="1" fill="#333333"/>
<rect x="52" y="18" width="1" height="1" fill="#333333"/>
<rect x="53" y="18" width="1" height="1" fill="#333333"/>
<rect x="36" y="29" width="1" height="1" fill="#333333"/>
<rect x="37" y="29" width="1" height="1" fill="#333333"/>
<rect x="36" y="30" width="1" height="1" fill="#333333"/>
<rect x="37" y="30" width="1" height="1" fill="#333333"/>
<rect x="38" y="27" width="1" height="1" fill="#333333"/>
<rect x="39" y="27" width="1" height="1" fill="#333333"/>
<rect x="38" y="28" width="1" height="1" fill="#333333"/>
<rect x="39" y="28" width="1" height="1" fill="#333333"/>
<rect x="40" y="27" width="1" height="1" fill="#333333"/>
<rect x="41" y="27" width="1" height="1" fill="#333333"/>
<rect x="40" y="28" width="1" height="1" fill="#333333"/>
<rect x="41" y="28" width="1" height="1" fill="#333333"/>
<rect x="42" y="29" width="1" height="1" fill="#333333"/>
<rect x="43" y="29" width="1" height="1" fill="#333333"/>
<rect x="42" y="30" width="1" height="1" fill="#333333"/>
<rect x="43" y="30" width="1" height="1" fill="#333333"/>
<rect x="42" y="35" width="1" height="1" fill="#333333"/>
<rect x="43" y="35" width="1" height="1" fill="#333333"/>
<rect x="42" y="36" width="1" height="1" fill="#333333"/>
<rect x="43" y="36" width="1" height="1" fill="#333333"/>
<rect x="36" y="35" width="1" height="1" fill="#333333"/>
<rect x="37" y="35" width="1" height="1" fill="#333333"/>
<rect x="36" y="36" width="1" height="1" fill="#333333"/>
<rect x="37" y="36" width="1" height="1" fill="#333333"/>
<rect x="38" y="37" width="1" height="1" fill="#333333"/>
<rect x="39" y="37" width="1" height="1" fill="#333333"/>
<rect x="38" y="38" width="1" height="1" fill="#333333"/>
<rect x="39" y="38" width="1" height="1" fill="#333333"/>
<rect x="40" y="37" width="1" height="1" fill="#333333"/>
<rect x="41" y="37" width="1" height="1" fill="#333333"/>
<rect x="40" y="38" width="1" height="1" fill="#333333"/>
<rect x="41" y="38" width="1" height="1" fill="#333333"/>
<rect x="44" y="33" width="1" height="1" fill="#333333"/>
<rect x="45" y="33" width="1" height="1" fill="#333333"/>
<rect x="44" y="34" width="1" height="1" fill="#333333"/>
<rect x="45" y="34" width="1" height="1" fill="#333333"/>
<rect x="44" y="31" width="1" height="1" fill="#333333"/>
<rect x="45" y="31" width="1" height="1" fill="#333333"/>
<rect x="44" y="32" width="1" height="1" fill="#333333"/>
<rect x="45" y="32" width="1" height="1" fill="#333333"/>
<rect x="34" y="31" width="1" height="1" fill="#333333"/>
<rect x="35" y="31" width="1" height="1" fill="#333333"/>
<rect x="34" y="32" width="1" height="1" fill="#333333"/>
<rect x="35" y="32" width="1" height="1" fill="#333333"/>
<rect x="34" y="33" width="1" height="1" fill="#333333"/>
<rect x="35" y="33" width="1" height="1" fill="#333333"/>
<rect x="34" y="34" width="1" height="1" fill="#333333"/>
<rect x="35" y="34" width="1" height="1" fill="#333333"/>
<rect x="50" y="19" width="1" height="1" fill="#333333"/>
<rect x="51" y="19" width="1" height="1" fill="#333333"/>
<rect x="50" y="20" width="1" height="1" fill="#333333"/>
<rect x="51" y="20" width="1" height="1" fill="#333333"/>
<rect x="56" y="21" width="1" height="1" fill="#333333"/>
<rect x="57" y="21" width="1" height="1" fill="#333333"/>
<rect x="56" y="22" width="1" height="1" fill="#333333"/>
<rect x="57" y="22" width="1" height="1" fill="#333333"/>
<rect x="54" y="23" width="1" height="1" fill="#333333"/>
<rect x="55" y="23" width="1" height="1" fill="#333333"/>
<rect x="54" y="24" width="1" height="1" fill="#333333"/>
<rect x="55" y="24" width="1" height="1" fill="#333333"/>
</svg>
